<svg width="512" height="512" viewBox="0 0 512 512" fill="none" xmlns="http://www.w3.org/2000/svg">
<g clip-path="url(#clip0_1655_2675)">
<path d="M288.372 74.3135C287.901 78.4231 284.176 81.3556 280.04 80.8751C275.939 80.3774 273.007 76.6529 273.478 72.5433C273.486 72.5167 274.962 55.5008 258.753 52.9156C246.018 50.9235 237.16 48.3736 230.286 43.8448C222.935 39.0419 218.34 32.4526 214.528 22.6298C213.037 18.7777 214.95 14.4509 218.802 12.9604C222.654 11.4698 226.981 13.3824 228.471 17.2346C231.132 24.0903 234.061 28.4698 238.457 31.3584C243.322 34.5481 250.418 36.4678 261.072 38.1693C291.657 43.0117 288.371 74.224 288.372 74.3135ZM99.0846 284.544C100.056 284.397 101.047 284.443 102 284.68C102.954 284.916 103.851 285.338 104.642 285.921C105.432 286.505 106.1 287.238 106.606 288.08C107.113 288.921 107.449 289.855 107.595 290.826C108.208 294.9 105.395 298.697 101.321 299.309L82.205 302.188L70.0621 371.206C69.8789 372.229 69.4858 373.204 68.9077 374.067C68.3295 374.931 67.5787 375.666 66.7026 376.226L16.5386 408.061C13.0505 410.266 8.40821 409.234 6.20318 405.746C3.99814 402.258 5.0302 397.616 8.51831 395.411L55.8989 365.352L68.4111 294.279C68.9615 291.21 71.4167 288.698 74.6672 288.234L99.0846 284.544ZM169.539 148.247C170.493 152.282 167.995 156.299 163.986 157.262C159.977 158.225 155.925 155.746 154.971 151.709L144.487 107.381C143.755 104.222 145.111 101.056 147.68 99.3877L161.159 89.5503L140.93 48.4318C139.127 44.7168 140.644 40.2321 144.359 38.4288C148.056 36.5903 152.541 38.1074 154.371 41.8311L177.334 88.575C178.927 91.7455 178.025 95.7138 175.055 97.8792L160.195 108.759L169.539 148.247ZM135.253 179.191C138.792 181.324 139.947 185.932 137.814 189.471C135.654 193.001 131.046 194.157 127.507 192.024L110.27 181.595L64.7531 218.577C63.8931 219.274 62.8896 219.773 61.8145 220.036C60.7394 220.3 59.6192 220.323 58.5342 220.103L10.4206 210.223C6.37148 209.384 3.78647 205.415 4.62506 201.365C4.82238 200.404 5.20752 199.49 5.7584 198.678C6.30928 197.866 7.01508 197.17 7.83534 196.631C8.65561 196.091 9.57422 195.719 10.5385 195.536C11.5028 195.352 12.4939 195.361 13.4549 195.561L58.1038 204.733L104.556 166.982C105.748 165.872 107.269 165.182 108.888 165.014C110.508 164.846 112.138 165.211 113.531 166.053L135.253 179.191ZM355.599 381.929C352.663 379.038 352.619 374.314 355.51 371.379C358.41 368.417 363.152 368.407 366.087 371.298L383.672 388.636C384.787 389.727 385.533 391.14 385.803 392.677C386.074 394.214 385.856 395.797 385.18 397.203L353.527 462.057L374.191 514.225C375.717 518.059 373.823 522.421 369.989 523.947C368.142 524.676 366.082 524.643 364.259 523.856C362.437 523.068 361.001 521.59 360.267 519.745L338.396 464.504C338.006 463.539 337.825 462.502 337.865 461.461C337.905 460.421 338.165 459.401 338.628 458.468L369.372 395.495L355.599 381.929ZM398.925 230.975C395.808 233.687 391.071 233.311 388.395 230.177C385.691 227.033 386.058 222.323 389.202 219.619L419.973 193.165L414.345 175.629C413.252 172.204 414.774 168.437 417.97 166.762L464.023 142.443C467.693 140.505 472.212 141.915 474.122 145.575C476.069 149.218 474.659 153.738 470.99 155.675L430.481 177.057L435.605 192.939C436.702 195.799 435.938 199.157 433.49 201.283L398.925 230.975ZM397.475 279.742C393.33 279.379 390.282 275.736 390.637 271.618C390.991 267.501 394.633 264.452 398.751 264.807L424.047 266.945C425.668 267.086 427.199 267.751 428.411 268.838C429.622 269.925 430.447 271.376 430.762 272.972L446.153 330.818L487.719 349.659C491.488 351.36 493.171 355.811 491.47 359.58C489.769 363.349 485.326 365.005 481.557 363.303L436.851 343.025C434.8 342.09 433.228 340.327 432.636 338.109L417.55 281.435L397.475 279.742ZM349.611 97.2805C347.576 100.882 343.015 102.171 339.404 100.164C335.776 98.1204 334.487 93.5587 336.521 89.9581C336.547 89.8772 352.261 62.7042 379.825 76.7566C389.444 81.6412 396.34 84.2686 402.151 84.548C407.406 84.795 412.35 82.9736 418.532 78.9911C419.356 78.4583 420.278 78.0932 421.244 77.9166C422.209 77.7401 423.2 77.7556 424.16 77.9623C425.12 78.169 426.029 78.5627 426.837 79.1211C427.644 79.6794 428.334 80.3914 428.866 81.2164C429.399 82.0409 429.764 82.9625 429.941 83.9283C430.118 84.8941 430.102 85.8853 429.896 86.8451C429.689 87.805 429.295 88.7147 428.737 89.5223C428.178 90.3299 427.466 91.0195 426.641 91.5518C417.756 97.2489 410.192 99.8877 401.422 99.4524C393.199 99.0759 384.535 95.9325 373.06 90.0583C358.428 82.6205 349.619 97.2538 349.611 97.2805Z" fill="#463D43"/>
<path fill-rule="evenodd" clip-rule="evenodd" d="M197.198 436.836C120.177 410.886 80.9532 319.247 109.509 231.361C121.404 194.751 143.066 164.413 170.122 143.518C190.307 127.901 201.928 133.048 218.939 138.575L354.921 182.759C371.933 188.286 384.359 190.952 391.511 215.451C401.118 248.259 400.81 285.535 388.914 322.145C360.357 410.031 274.733 461.104 197.198 436.836Z" fill="#FC636E"/>
<path fill-rule="evenodd" clip-rule="evenodd" d="M197.198 436.837C193.244 435.49 189.353 433.968 185.536 432.273C259.683 447.99 338.06 397.751 365.136 314.419C377.032 277.809 377.341 240.533 367.733 207.726C361.76 187.216 352.065 182.009 339.097 177.617L354.922 182.759C371.933 188.286 384.359 190.953 391.511 215.451C401.118 248.259 400.81 285.535 388.915 322.145C360.357 410.032 274.733 461.105 197.198 436.837Z" fill="#DA4A54"/>
<path fill-rule="evenodd" clip-rule="evenodd" d="M197.198 436.837C194.824 436.031 192.474 435.158 190.15 434.219L278.603 161.986L292.864 166.62L204.411 438.853C202.013 438.252 199.606 437.589 197.198 436.837Z" fill="#D94650"/>
<path fill-rule="evenodd" clip-rule="evenodd" d="M355.345 111.096C379.627 133.233 390.708 164.165 380.643 195.141L190.851 133.474C200.916 102.498 228.063 83.9866 260.719 80.3499C269.057 69.9159 291.448 67.3251 314.794 74.9109C338.141 82.4966 354.706 97.7438 355.345 111.096ZM255.738 256.668C272.776 262.204 291.206 252.813 296.742 235.776C302.287 218.711 292.896 200.28 275.858 194.744C258.793 189.199 240.389 198.598 234.844 215.664C229.309 232.701 238.672 251.123 255.738 256.668ZM316.709 337.789C333.748 343.325 352.178 333.935 357.714 316.896C363.259 299.832 353.86 281.428 336.821 275.891C319.756 270.347 301.361 279.719 295.816 296.784C290.28 313.822 299.644 332.244 316.709 337.789ZM158.728 286.458C175.767 291.994 194.197 282.604 199.733 265.565C205.278 248.501 195.878 230.096 178.84 224.56C161.802 219.024 143.381 228.388 137.836 245.454C132.3 262.491 141.69 280.922 158.728 286.458ZM297.893 369.557C292.878 359.671 277.746 357.258 264.137 364.192C250.528 371.126 243.586 384.788 248.636 394.654C253.65 404.539 268.764 406.916 282.373 399.983C295.982 393.049 302.942 379.424 297.893 369.557ZM155.279 323.219C165.146 318.169 178.78 325.102 185.713 338.711C192.647 352.32 190.261 367.461 180.375 372.475C170.508 377.525 156.857 370.555 149.922 356.947C142.989 343.339 145.394 328.234 155.279 323.219Z" fill="#463D43"/>
<path fill-rule="evenodd" clip-rule="evenodd" d="M331.567 103.37C354.883 124.627 366.023 153.999 357.967 183.749C357.636 184.953 357.259 186.202 356.865 187.415L380.642 195.141C390.707 164.165 379.625 133.233 355.344 111.096C355.14 106.588 353.096 101.872 349.61 97.2809C346.82 93.6628 343.119 90.1048 338.657 86.8665C332.104 82.0845 323.986 77.8969 314.793 74.9099C310.695 73.5783 306.609 72.5787 302.641 71.8553C319.701 80.0817 331.053 92.3838 331.567 103.37Z" fill="#40363D"/>
</g>
<defs>
<clipPath id="clip0_1655_2675">
<rect width="512" height="512" fill="white"/>
</clipPath>
</defs>
</svg>
